<svg xmlns="http://www.w3.org/2000/svg" viewBox="0 0 32 32" width="32" height="32">
  <defs>
    <linearGradient id="grad1" x1="0%" y1="0%" x2="100%" y2="100%">
      <stop offset="0%" style="stop-color:#3B82F6;stop-opacity:1" />
      <stop offset="100%" style="stop-color:#1E40AF;stop-opacity:1" />
    </linearGradient>
    <linearGradient id="grad2" x1="0%" y1="0%" x2="100%" y2="100%">
      <stop offset="0%" style="stop-color:#10B981;stop-opacity:1" />
      <stop offset="100%" style="stop-color:#059669;stop-opacity:1" />
    </linearGradient>
  </defs>
  
  <!-- Background circle -->
  <circle cx="16" cy="16" r="15" fill="url(#grad1)" stroke="#1E40AF" stroke-width="1"/>
  
  <!-- Bar chart representing data visualization -->
  <rect x="6" y="20" width="2" height="6" fill="url(#grad2)" rx="1"/>
  <rect x="10" y="18" width="2" height="8" fill="url(#grad2)" rx="1"/>
  <rect x="14" y="22" width="2" height="4" fill="url(#grad2)" rx="1"/>
  <rect x="18" y="16" width="2" height="10" fill="url(#grad2)" rx="1"/>
  <rect x="22" y="20" width="2" height="6" fill="url(#grad2)" rx="1"/>
  <rect x="26" y="14" width="2" height="12" fill="url(#grad2)" rx="1"/>
  
  <!-- Line graph representing algorithm visualization -->
  <path d="M 6 24 L 10 22 L 14 26 L 18 20 L 22 24 L 26 18" 
        stroke="#F59E0B" stroke-width="2" fill="none" stroke-linecap="round" stroke-linejoin="round"/>
  
  <!-- Data points -->
  <circle cx="6" cy="24" r="1.5" fill="#F59E0B"/>
  <circle cx="10" cy="22" r="1.5" fill="#F59E0B"/>
  <circle cx="14" cy="26" r="1.5" fill="#F59E0B"/>
  <circle cx="18" cy="20" r="1.5" fill="#F59E0B"/>
  <circle cx="22" cy="24" r="1.5" fill="#F59E0B"/>
  <circle cx="26" cy="18" r="1.5" fill="#F59E0B"/>
  
  <!-- Algorithm flow arrows -->
  <path d="M 8 8 L 12 8 L 12 6" stroke="#EF4444" stroke-width="1.5" fill="none" stroke-linecap="round"/>
  <path d="M 12 6 L 10 8 L 12 10" stroke="#EF4444" stroke-width="1.5" fill="none" stroke-linecap="round" stroke-linejoin="round"/>
  
  <path d="M 16 8 L 20 8 L 20 6" stroke="#EF4444" stroke-width="1.5" fill="none" stroke-linecap="round"/>
  <path d="M 20 6 L 18 8 L 20 10" stroke="#EF4444" stroke-width="1.5" fill="none" stroke-linecap="round" stroke-linejoin="round"/>
  
  <path d="M 24 8 L 28 8 L 28 6" stroke="#EF4444" stroke-width="1.5" fill="none" stroke-linecap="round"/>
  <path d="M 28 6 L 26 8 L 28 10" stroke="#EF4444" stroke-width="1.5" fill="none" stroke-linecap="round" stroke-linejoin="round"/>
</svg> 